#!OML:ASF X:\für Bonn\!DataBase\2005_08_11_Bastian_Final\c3d\Bastian.ASF
:FULLY-SPECIFIED
:DEGREES
366
root 9.91062 16.804 -0.767363 1098.75 -76.4501 -24.7485
lowerback 10.4373 -3.72936 2.63363
upperback 9.82212 -5.34911 2.36113
thorax 4.48074 -2.83536 1.31663
lowerneck -10.2134 -6.15016 -3.9207
upperneck -6.89848 -7.92451 13.7426
head 0.376467 -4.0094 4.47562
rclavicle -1.49089e-016 -1.01132e-014
rhumerus -41.9649 -4.40334 -76.916
rradius 13.0763
rwrist 6.49528
rhand -15.5871 3.94152
rfingers 7.12502
rthumb 10.5984 -25.7712
lclavicle -1.49089e-016 -1.01132e-014
lhumerus -10.0253 -11.0403 -271.98
lradius 25.539
lwrist -342.957
lhand -12.8121 -9.50239
lfingers 7.12502
lthumb 13.2743 20.0549
rfemur -30.0722 -6.76961 26.4923
rtibia 42.6205
rfoot -11.6252 -5.29893
rtoes -7.45636
lfemur 34.2601 -0.641616 -12.5759
ltibia -6.36111e-014
lfoot -12.9391 -4.28402
ltoes -28.6384
367
root 9.7512 16.7939 -0.777697 1098.8 -76.3769 -24.8881
lowerback 10.3404 -3.80567 2.80983
upperback 9.74763 -5.436 2.38853
thorax 4.44193 -2.86763 1.24988
lowerneck -10.2422 -6.0784 -3.97727
upperneck -6.84397 -7.82534 13.7228
head 0.389811 -3.95452 4.48223
rclavicle -6.81459e-015 9.69075e-015
rhumerus -42.3672 -4.7598 -76.7773
rradius 13.1598
rwrist 6.95878
rhand -15.2956 3.6678
rfingers 7.12502
rthumb 10.8796 -26.0304
lclavicle -6.81459e-015 9.69075e-015
lhumerus -10.5685 -10.9564 -271.807
lradius 25.1366
lwrist -342.899
lhand -12.8956 -9.53323
lfingers 7.12502
lthumb 13.1939 20.0293
rfemur -29.7382 -6.84547 26.6464
rtibia 43.1122
rfoot -11.2312 -5.22334
rtoes -7.65617
lfemur 34.765 -0.879635 -12.4246
ltibia 3.81667e-014
lfoot -12.1127 -4.13851
ltoes -30.3117
368
root 9.59072 16.7859 -0.788068 1098.68 -76.3622 -24.8514
lowerback 10.2651 -3.86788 2.90293
upperback 9.65735 -5.50755 2.42415
thorax 4.38178 -2.89746 1.23864
lowerneck -10.2467 -6.01429 -4.11791
upperneck -6.75122 -7.72914 13.7187
head 0.41506 -3.89754 4.50683
rclavicle 8.26012e-014 -5.45975e-014
rhumerus -42.7063 -5.01893 -76.6245
rradius 13.1138
rwrist 7.36754
rhand -15.3644 3.91374
rfingers 7.12502
rthumb 10.8133 -25.7879
lclavicle 8.26012e-014 -5.45975e-014
lhumerus -11.1744 -10.7895 -271.569
lradius 24.6938
lwrist -342.879
lhand -13.0054 -9.63086
lfingers 7.12502
lthumb 13.0879 19.9385
rfemur -29.3696 -6.8753 26.7351
rtibia 43.5623
rfoot -10.9004 -5.15983
rtoes -7.23127
lfemur 35.2833 -1.07643 -12.3364
ltibia 3.49861e-014
lfoot -11.161 -3.98557
ltoes -31.6831
369
root 9.42481 16.7801 -0.799254 1098.72 -76.341 -25.0142
lowerback 10.1488 -3.93399 3.02407
upperback 9.60051 -5.58966 2.47582
thorax 4.37965 -2.93214 1.22444
lowerneck -10.2742 -5.94107 -4.26678
upperneck -6.66699 -7.61959 13.7213
head 0.440811 -3.83376 4.5352
rclavicle 1.41137e-014 -1.0958e-014
rhumerus -42.9065 -5.31535 -76.4431
rradius 12.9799
rwrist 7.87425
rhand -15.3959 4.14473
rfingers 7.12502
rthumb 10.7829 -25.5585
lclavicle 1.41137e-014 -1.0958e-014
lhumerus -11.7372 -10.5002 -271.352
lradius 24.1787
lwrist -342.924
lhand -13.1301 -9.73023
lfingers 7.12502
lthumb 12.9678 19.8468
rfemur -28.9093 -6.91524 26.8801
rtibia 43.9558
rfoot -10.5937 -5.12741
rtoes -6.50766
lfemur 35.8344 -1.27446 -12.1927
ltibia -2.22639e-014
lfoot -10.105 -3.88524
ltoes -32.9445
370
root 9.25563 16.779 -0.810832 1098.69 -76.3064 -25.1073
lowerback 9.9403 -4.00307 3.13714
upperback 9.61668 -5.68794 2.49816
thorax 4.50424 -2.97406 1.17416
lowerneck -10.3963 -5.87055 -4.3465
upperneck -6.59302 -7.52163 13.71
head 0.475833 -3.77591 4.54541
rclavicle 5.57343e-014 -1.58531e-014
rhumerus -42.9735 -5.74408 -76.2633
rradius 12.851
rwrist 8.48776
rhand -15.4035 4.33716
rfingers 7.12502
rthumb 10.7756 -25.3664
lclavicle 5.57343e-014 -1.58531e-014
lhumerus -12.2452 -10.3121 -271.199
lradius 23.6794
lwrist -342.894
lhand -13.345 -9.78641
lfingers 7.12502
lthumb 12.7606 19.8036
rfemur -28.3947 -6.92371 27.008
rtibia 44.2769
rfoot -10.3487 -5.16973
rtoes -5.81628
lfemur 36.3693 -1.49123 -12.061
ltibia 8.5875e-014
lfoot -8.85365 -3.82253
ltoes -33.996
371
root 9.08838 16.7815 -0.821657 1098.66 -76.3068 -25.1784
lowerback 9.71715 -4.05234 3.21688
upperback 9.67004 -5.76988 2.55256
thorax 4.6838 -3.01155 1.17084
lowerneck -10.6347 -5.8023 -4.52683
upperneck -6.50605 -7.41706 13.7633
head 0.539703 -3.70879 4.58884
rclavicle 4.68635e-014 -2.77802e-014
rhumerus -42.8896 -5.9566 -76.2063
rradius 12.7805
rwrist 8.80365
rhand -15.4237 4.38037
rfingers 7.12502
rthumb 10.7561 -25.3243
lclavicle 4.68635e-014 -2.77802e-014
lhumerus -12.686 -9.93598 -270.998
lradius 23.1412
lwrist -342.975
lhand -13.5488 -9.76686
lfingers 7.12502
lthumb 12.5642 19.8354
rfemur -27.85 -6.92789 27.1209
rtibia 44.5066
rfoot -10.1263 -5.18674
rtoes -5.04501
lfemur 36.8687 -1.67573 -11.9466
ltibia -4.45278e-014
lfoot -7.35799 -3.78076
ltoes -34.6651
372
root 8.92298 16.7905 -0.833629 1098.61 -76.3326 -25.2071
lowerback 9.50519 -4.08449 3.29232
upperback 9.69183 -5.82418 2.58757
thorax 4.82119 -3.03381 1.15027
lowerneck -10.8122 -5.74464 -4.62201
upperneck -6.41058 -7.3347 13.731
head 0.590344 -3.65574 4.59296
rclavicle 9.49197e-015 -2.27608e-014
rhumerus -42.8529 -5.94871 -76.3475
rradius 12.8781
rwrist 8.76044
rhand -15.326 4.275
rfingers 7.12502
rthumb 10.8504 -25.4247
lclavicle 9.49197e-015 -2.27608e-014
lhumerus -13.1622 -9.49477 -270.818
lradius 22.539
lwrist -343.198
lhand -13.6541 -9.59052
lfingers 7.12502
lthumb 12.4627 20.0179
rfemur -27.2764 -6.87772 27.2224
rtibia 44.6298
rfoot -9.9822 -5.24222
rtoes -4.50279
lfemur 37.3039 -1.83276 -11.8557
ltibia -7.95139e-014
lfoot -5.63442 -3.70127
ltoes -35.5102
373
root 8.75785 16.804 -0.845728 1098.67 -76.3366 -25.339
lowerback 9.28233 -4.10162 3.38764
upperback 9.7031 -5.85893 2.65295
thorax 4.95505 -3.04605 1.1486
lowerneck -10.9265 -5.71515 -4.77065
upperneck -6.36251 -7.27982 13.7235
head 0.622805 -3.61894 4.61438
rclavicle 1.32192e-014 -7.65321e-015
rhumerus -42.7973 -5.80373 -76.5743
rradius 13.1055
rwrist 8.3528
rhand -15.168 3.91097
rfingers 7.12502
rthumb 11.0027 -25.7807
lclavicle 1.32192e-014 -7.65321e-015
lhumerus -13.5823 -8.8735 -270.609
lradius 21.8086
lwrist -343.642
lhand -13.6263 -9.38181
lfingers 7.12502
lthumb 12.4894 20.225
rfemur -26.6446 -6.8286 27.3535
rtibia 44.6396
rfoot -9.91956 -5.33651
rtoes -4.24999
lfemur 33.7794 -1.90862 -11.6319
ltibia 8.01298
lfoot -7.59337 -3.98493
ltoes -35.8832
